<svg width="640" height="420" viewBox="0 0 640 420" fill="none" xmlns="http://www.w3.org/2000/svg">
  <rect width="640" height="420" rx="32" fill="#09121F"/>
  <rect x="36" y="34" width="568" height="352" rx="24" fill="url(#paint0_linear)" fill-opacity="0.2" stroke="rgba(255,255,255,0.16)"/>
  <rect x="68" y="76" width="160" height="20" rx="10" fill="#68A8FF"/>
  <rect x="68" y="116" width="240" height="16" rx="8" fill="#1E324D"/>
  <rect x="68" y="160" width="504" height="140" rx="24" fill="#0D192C"/>
  <circle cx="166" cy="230" r="48" fill="#67F0D1" fill-opacity="0.85"/>
  <path d="M166 182C192.51 182 214 203.49 214 230C214 256.51 192.51 278 166 278C139.49 278 118 256.51 118 230C118 203.49 139.49 182 166 182Z" fill="#09121F"/>
  <rect x="278" y="186" width="236" height="16" rx="8" fill="#9F7BFF"/>
  <rect x="278" y="218" width="196" height="16" rx="8" fill="#68A8FF" fill-opacity="0.8"/>
  <rect x="278" y="250" width="132" height="16" rx="8" fill="#1E324D"/>
  <defs>
    <linearGradient id="paint0_linear" x1="52" y1="52" x2="558" y2="382" gradientUnits="userSpaceOnUse">
      <stop stop-color="#68A8FF"/>
      <stop offset="0.52" stop-color="#9F7BFF"/>
      <stop offset="1" stop-color="#67F0D1"/>
    </linearGradient>
  </defs>
</svg>
